<?xml version="1.0" standalone="no"?>
<!DOCTYPE svg PUBLIC "-//W3C//DTD SVG 20010904//EN"
 "http://www.w3.org/TR/2001/REC-SVG-20010904/DTD/svg10.dtd">
<svg version="1.0" xmlns="http://www.w3.org/2000/svg"
 width="500.000000pt" height="500.000000pt" viewBox="0 0 500.000000 500.000000"
 preserveAspectRatio="xMidYMid meet">
<metadata>
Created by potrace 1.16, written by Peter Selinger 2001-2019
</metadata>
<g transform="translate(0.000000,500.000000) scale(0.100000,-0.100000)"
fill="#000000" stroke="none">
<path d="M2463 4154 c-22 -38 -63 -109 -90 -159 -28 -49 -155 -274 -283 -500
-128 -225 -310 -547 -405 -715 -365 -644 -643 -1136 -654 -1158 l-12 -22 488
0 488 0 44 78 c24 42 139 244 254 447 115 204 210 371 211 372 1 1 40 -64 86
-145 196 -346 557 -980 720 -1267 l177 -310 487 -3 c267 -1 486 0 486 2 0 2
-111 199 -246 437 -135 239 -345 610 -467 824 -362 641 -629 1110 -827 1460
-103 182 -233 411 -288 510 -139 247 -121 232 -169 149z"/>
<path d="M906 1398 c-23 -37 -356 -619 -356 -624 0 -2 605 -4 1345 -4 740 0
1345 3 1345 6 0 6 -281 532 -328 615 l-17 29 -987 0 -988 0 -14 -22z"/>
</g>
</svg>
